{
  "accessors": [
    {
      "bufferView": 0,
      "byteOffset": 0,
      "componentType": 5125,
      "normalized": false,
      "count": 892239,
      "type": "SCALAR"
    },
    {
      "bufferView": 0,
      "byteOffset": 3568956,
      "componentType": 5123,
      "normalized": false,
      "count": 7014,
      "type": "SCALAR"
    },
    {
      "bufferView": 0,
      "byteOffset": 3582984,
      "componentType": 5123,
      "normalized": false,
      "count": 6160,
      "type": "SCALAR"
    },
    {
      "bufferView": 1,
      "byteOffset": 0,
      "componentType": 5121,
      "normalized": true,
      "count": 149917,
      "type": "VEC4"
    },
    {
      "bufferView": 1,
      "byteOffset": 4,
      "componentType": 5120,
      "normalized": true,
      "count": 149917,
      "type": "VEC3"
    },
    {
      "bufferView": 1,
      "byteOffset": 8,
      "componentType": 5122,
      "normalized": true,
      "count": 149917,
      "type": "VEC3",
      "max": [
        30703.0,
        32767.0,
        7876.0
      ],
      "min": [
        -30703.0,
        -32767.0,
        -7876.0
      ]
    },
    {
      "bufferView": 2,
      "byteOffset": 0,
      "componentType": 5122,
      "normalized": true,
      "count": 1331,
      "type": "VEC3",
      "max": [
        30703.0,
        32767.0,
        0.0
      ],
      "min": [
        -30703.0,
        -32767.0,
        0.0
      ]
    },
    {
      "bufferView": 3,
      "byteOffset": 0,
      "componentType": 5122,
      "normalized": true,
      "count": 6046,
      "type": "VEC3",
      "max": [
        30703.0,
        32767.0,
        7876.0
      ],
      "min": [
        -30703.0,
        -32767.0,
        -7876.0
      ]
    }
  ],
  "asset": {
    "generator": "glTF-Transform v4.0.8",
    "version": "2.0"
  },
  "bufferViews": [
    {
      "buffer": 0,
      "byteOffset": 0,
      "byteLength": 3595304,
      "target": 34963
    },
    {
      "buffer": 0,
      "byteOffset": 3595304,
      "byteLength": 2398672,
      "byteStride": 16,
      "target": 34962
    },
    {
      "buffer": 0,
      "byteOffset": 5993976,
      "byteLength": 10648,
      "byteStride": 8,
      "target": 34962
    },
    {
      "buffer": 0,
      "byteOffset": 6004624,
      "byteLength": 48368,
      "byteStride": 8,
      "target": 34962
    }
  ],
  "buffers": [
    {
      "uri": "Open_Pit_Mine_pruned.bin",
      "byteLength": 6052992
    }
  ],
  "cameras": [
    {
      "perspective": {
        "aspectRatio": 1.3333333333333333,
        "yfov": 0.5235987755982988,
        "zfar": 1000.01,
        "znear": 0.01
      },
      "type": "perspective"
    }
  ],
  "extensionsUsed": [
    "KHR_mesh_quantization"
  ],
  "extensionsRequired": [
    "KHR_mesh_quantization"
  ],
  "materials": [
    {
      "pbrMetallicRoughness": {
        "baseColorFactor": [
          0.6784313725490196,
          0.8470588235294118,
          0.9019607843137255,
          1.0
        ],
        "metallicFactor": 0.0,
        "roughnessFactor": 1.0
      },
      "emissiveFactor": [
        0.0,
        0.0,
        0.0
      ],
      "alphaMode": "OPAQUE",
      "alphaCutoff": 0.5,
      "doubleSided": false
    },
    {
      "pbrMetallicRoughness": {
        "baseColorFactor": [
          0.5019607843137255,
          0.5019607843137255,
          0.5019607843137255,
          1.0
        ],
        "metallicFactor": 0.0,
        "roughnessFactor": 1.0
      },
      "emissiveFactor": [
        0.0,
        0.0,
        0.0
      ],
      "alphaMode": "OPAQUE",
      "alphaCutoff": 0.5,
      "doubleSided": false
    },
    {
      "pbrMetallicRoughness": {
        "baseColorFactor": [
          0.3333333333333333,
          0.2235294117647059,
          0.23137254901960785,
          1.0
        ],
        "metallicFactor": 0.0,
        "roughnessFactor": 1.0
      },
      "emissiveFactor": [
        0.0,
        0.0,
        0.0
      ],
      "alphaMode": "OPAQUE",
      "alphaCutoff": 0.5,
      "doubleSided": false
    }
  ],
  "meshes": [
    {
      "primitives": [
        {
          "attributes": {
            "POSITION": 5,
            "NORMAL": 4,
            "COLOR_0": 3
          },
          "indices": 0,
          "mode": 4,
          "material": 0
        }
      ],
      "name": "mesh0"
    },
    {
      "primitives": [
        {
          "attributes": {
            "POSITION": 6
          },
          "indices": 1,
          "mode": 4,
          "material": 1
        }
      ],
      "name": "mesh1"
    },
    {
      "primitives": [
        {
          "attributes": {
            "POSITION": 7
          },
          "indices": 2,
          "mode": 1,
          "material": 2
        }
      ],
      "name": "mesh2"
    }
  ],
  "nodes": [
    {
      "mesh": 0,
      "rotation": [
        0.5,
        0.5,
        0.5,
        -0.5
      ],
      "translation": [
        2431681.000000001,
        575.5839843750002,
        954818.5625000005
      ],
      "scale": [
        256.7500000000001,
        256.7500000000001,
        256.7500000000001
      ],
      "name": "mesh0"
    },
    {
      "mesh": 1,
      "rotation": [
        0.5,
        0.5,
        0.5,
        -0.5
      ],
      "translation": [
        2431681.000000001,
        513.8626708984377,
        954818.5625000005
      ],
      "scale": [
        256.7500000000001,
        256.7500000000001,
        256.7500000000001
      ],
      "name": "mesh1"
    },
    {
      "mesh": 2,
      "rotation": [
        0.5,
        0.5,
        0.5,
        -0.5
      ],
      "translation": [
        2431681.000000001,
        575.5839843750002,
        954818.5625000005
      ],
      "scale": [
        256.7500000000001,
        256.7500000000001,
        256.7500000000001
      ],
      "name": "mesh2"
    },
    {
      "translation": [
        0.0,
        0.0,
        1.0
      ],
      "camera": 0,
      "name": "Camera Node"
    }
  ],
  "scene": 0,
  "scenes": [
    {
      "name": "Layer 0",
      "nodes": [
        0,
        1,
        2,
        3
      ]
    }
  ]
}